<svg width="16" height="16" viewBox="0 0 16 16" fill="none" xmlns="http://www.w3.org/2000/svg">
<path d="M0 8C0 3.58172 3.58172 0 8 0H14C15.1046 0 16 0.895431 16 2V8C16 12.4183 12.4183 16 8 16V16C3.58172 16 0 12.4183 0 8V8Z" fill="#666666"/>
<path d="M1 8C1 4.13401 4.13401 1 8 1H14C14.5523 1 15 1.44772 15 2V8C15 11.866 11.866 15 8 15C4.13401 15 1 11.866 1 8Z" fill="white"/>
<path d="M2 8C2 4.68629 4.68629 2 8 2H14V8C14 11.3137 11.3137 14 8 14V14C4.68629 14 2 11.3137 2 8V8Z" fill="#EEEEEE"/>
<path fill-rule="evenodd" clip-rule="evenodd" d="M2 8C2 4.68629 4.68629 2 8 2H10V4H8C5.79086 4 4 5.79086 4 8C4 10.2091 5.79086 12 8 12C10.2091 12 12 10.2091 12 8H14C14 11.3137 11.3137 14 8 14C4.68629 14 2 11.3137 2 8Z" fill="#3399FF"/>
<path fill-rule="evenodd" clip-rule="evenodd" d="M5.17157 5.17157C4.44772 5.89543 4 6.89543 4 8C4 10.2091 5.79086 12 8 12C10.2091 12 12 10.2091 12 8V4V2H10V8C10 9.10457 9.10457 10 8 10C6.89543 10 6 9.10457 6 8C6 7.44772 6.22386 6.94772 6.58579 6.58579L5.17157 5.17157Z" fill="#00CC99"/>
</svg>
