<svg width="16" height="16" viewBox="0 0 16 16" fill="none" xmlns="http://www.w3.org/2000/svg">
<circle cx="8" cy="8" r="8" fill="#666666"/>
<circle cx="8" cy="8" r="7" fill="white"/>
<circle cx="8" cy="8" r="6" fill="#EEEEEE"/>
<path fill-rule="evenodd" clip-rule="evenodd" d="M2 8C2 4.68629 4.68629 2 8 2C8.70127 2 9.37444 2.12031 10 2.34141V4.53513C9.41165 4.19479 8.72857 4 8 4C5.79086 4 4 5.79086 4 8C4 10.2091 5.79086 12 8 12C10.2091 12 12 10.2091 12 8H14C14 11.3137 11.3137 14 8 14C4.68629 14 2 11.3137 2 8Z" fill="#3399FF"/>
<path fill-rule="evenodd" clip-rule="evenodd" d="M5.17157 5.17157C4.44772 5.89543 4 6.89543 4 8C4 10.2091 5.79086 12 8 12C10.2091 12 12 10.2091 12 8V4V3.52779C11.4229 3.01127 10.7452 2.60482 10 2.34141V8C10 9.10457 9.10457 10 8 10C6.89543 10 6 9.10457 6 8C6 7.44772 6.22386 6.94772 6.58579 6.58579L5.17157 5.17157Z" fill="#00CC99"/>
</svg>
